<svg xmlns="http://www.w3.org/2000/svg" height="800" width="1200" xml:space="preserve" id="Layer_1" version="1.1" viewBox="-30 -12.57 260 75.42"><style id="style14252" type="text/css">.st0{fill:#ee3124}</style><g id="g14278"><g id="g14258"><path id="path14254" d="M50.27 25.14c0 13.88-11.25 25.14-25.14 25.14C11.25 50.27 0 39.02 0 25.14S11.25 0 25.14 0c13.88 0 25.13 11.25 25.13 25.14" class="st0"/><path id="path14256" d="M25.34 39.15c-6.91.02-14.09-5.87-14.12-15.34-.02-6.26 3.36-12.28 7.67-15.86 4.21-3.49 9.98-5.72 15.21-5.74.67 0 1.38.05 1.81.2-4.57.95-8.21 5.21-8.2 10.03 0 .16.02.33.03.41 7.65 1.86 11.13 6.48 11.15 12.87.02 6.4-5.03 13.4-13.55 13.43" fill="#fff"/></g><path id="polygon14260" class="st0" d="M63.84 17.21l4.8 12.17 4.64-12.17h4.79l-7.46 18.34H66.5l-7.68-18.34z"/><g id="g14270"><path id="path14262" d="M91.45 26.28c0-.76-.09-1.49-.27-2.18-.18-.69-.44-1.28-.8-1.78-.36-.5-.79-.89-1.29-1.18-.51-.29-1.1-.44-1.79-.44-.68 0-1.28.15-1.79.44-.51.29-.94.69-1.29 1.18-.36.5-.62 1.09-.8 1.78-.18.69-.27 1.41-.27 2.18 0 .79.09 1.52.27 2.2.18.67.44 1.27.78 1.77.34.51.77.91 1.29 1.2.52.29 1.12.44 1.81.44s1.28-.15 1.79-.44c.51-.29.94-.69 1.29-1.2.36-.51.62-1.1.8-1.77.18-.68.27-1.41.27-2.2m4.64.02c0 1.19-.18 2.37-.55 3.52-.37 1.16-.91 2.19-1.64 3.1-.72.91-1.64 1.65-2.74 2.21-1.1.56-2.39.84-3.86.84-1.47 0-2.76-.28-3.86-.84-1.1-.56-2.02-1.29-2.74-2.21-.72-.91-1.27-1.95-1.64-3.1-.37-1.15-.55-2.33-.55-3.52s.18-2.36.55-3.5c.37-1.14.91-2.16 1.64-3.06.72-.9 1.64-1.62 2.74-2.17 1.1-.54 2.39-.82 3.86-.82 1.47 0 2.75.27 3.84.82 1.09.55 2 1.27 2.74 2.17.74.9 1.29 1.92 1.66 3.06.37 1.14.55 2.31.55 3.5" class="st0"/><path id="path14264" d="M110.26 21.24c-.91-.36-1.75-.53-2.54-.53-.81 0-1.5.15-2.08.46-.58.31-1.06.72-1.44 1.24-.38.52-.66 1.11-.85 1.76-.19.65-.28 1.32-.28 2 0 .76.08 1.5.25 2.2.16.7.42 1.31.76 1.83s.77.94 1.29 1.26c.52.32 1.13.48 1.84.48.58 0 1.17-.16 1.78-.48.6-.32 1.03-.69 1.29-1.13v-9.09zm.38 14.31l-.19-1.41c-.43.48-1 .91-1.71 1.28s-1.54.55-2.5.55c-1.26 0-2.38-.27-3.34-.8s-1.77-1.24-2.43-2.13c-.66-.89-1.16-1.92-1.5-3.08-.34-1.17-.51-2.38-.51-3.65 0-1.19.18-2.36.53-3.5.35-1.14.89-2.16 1.61-3.06.72-.9 1.62-1.62 2.71-2.17 1.09-.54 2.36-.82 3.83-.82.96 0 2 .18 3.11.53v-7.11h4.72v25.38h-4.33z" class="st0"/><path id="path14266" d="M128.26 26.95c-.51.03-1.03.07-1.57.13s-1.05.15-1.53.25c-1.02.2-1.73.55-2.13 1.05-.4.49-.59 1.03-.59 1.62 0 .61.22 1.1.67 1.47.45.37 1.08.55 1.9.55.61 0 1.21-.13 1.78-.38.57-.25 1.07-.57 1.48-.95v-3.74zm.38 8.58l-.19-1.37c-.51.56-1.16 1.01-1.95 1.32-.79.32-1.65.48-2.6.48-.79 0-1.55-.13-2.27-.4-.73-.27-1.37-.65-1.93-1.14-.56-.49-1.01-1.1-1.36-1.83-.34-.72-.51-1.54-.51-2.45 0-.91.18-1.72.53-2.42.36-.7.84-1.29 1.45-1.77s1.31-.88 2.1-1.18c.79-.3 1.62-.53 2.48-.68.61-.13 1.28-.22 2.01-.28.72-.06 1.33-.12 1.81-.17v-.27c0-1.02-.26-1.74-.78-2.17-.52-.43-1.24-.65-2.16-.65-.54 0-1.05.06-1.53.19s-.92.28-1.3.48c-.38.19-.72.38-1.01.57-.29.19-.53.36-.71.51l-1.55-3.3c.2-.18.51-.39.93-.65.42-.25.93-.5 1.52-.74.6-.24 1.27-.44 2.02-.61.75-.16 1.55-.25 2.42-.25 1.01 0 1.94.13 2.78.4.84.27 1.56.68 2.17 1.26.61.57 1.08 1.29 1.43 2.17.34.87.51 1.93.51 3.17v11.79h-4.31z" class="st0"/><path id="path14268" d="M151.17 33.89c-.18.13-.45.3-.83.53-.38.23-.85.45-1.42.66-.57.21-1.23.4-1.98.55-.76.15-1.61.23-2.57.23-1.11 0-2.17-.19-3.19-.57-1.02-.38-1.93-.96-2.71-1.74-.79-.78-1.42-1.76-1.88-2.94-.47-1.18-.7-2.58-.7-4.19 0-1.61.23-3.02.68-4.23.46-1.21 1.07-2.22 1.85-3.02.77-.81 1.67-1.4 2.68-1.79 1.01-.39 2.07-.59 3.18-.59 1.06 0 1.98.14 2.78.42.79.28 1.48.62 2.06 1.04.58.42 1.05.88 1.42 1.38.36.5.66.98.89 1.43l-3.47 2.34c-.38-.65-.85-1.26-1.42-1.83-.57-.57-1.3-.85-2.21-.85-1.01 0-1.88.45-2.63 1.34-.74.89-1.11 2.28-1.11 4.17 0 1.81.38 3.2 1.13 4.15.76.96 1.85 1.44 3.28 1.44.68 0 1.29-.07 1.83-.21.54-.14 1.01-.3 1.42-.49.4-.19.74-.38 1-.58.26-.2.46-.37.58-.49z" class="st0"/></g><g id="g14276"><path id="path14272" d="M165.62 26.24c0-.76-.09-1.48-.26-2.16-.18-.68-.44-1.27-.79-1.76-.35-.49-.78-.88-1.28-1.17-.5-.29-1.1-.44-1.77-.44-.68 0-1.27.15-1.78.44-.5.29-.93.68-1.28 1.17-.35.49-.62 1.08-.79 1.76-.18.68-.26 1.4-.26 2.16 0 .78.09 1.51.26 2.18.18.67.43 1.26.77 1.76s.77.9 1.28 1.19c.52.29 1.11.44 1.79.44.68 0 1.27-.14 1.77-.44.5-.29.93-.69 1.28-1.19.35-.51.62-1.09.79-1.76.18-.66.27-1.39.27-2.18m4.61.02c0 1.18-.18 2.35-.55 3.49-.37 1.15-.91 2.17-1.62 3.08-.72.91-1.62 1.64-2.72 2.19s-2.37.83-3.83.83-2.74-.28-3.83-.83c-1.1-.55-2-1.28-2.72-2.19-.72-.91-1.26-1.93-1.62-3.08-.36-1.14-.55-2.31-.55-3.49 0-1.18.18-2.34.55-3.47.36-1.13.91-2.15 1.62-3.04.72-.89 1.62-1.61 2.72-2.15 1.1-.54 2.37-.81 3.83-.81s2.73.27 3.81.81 1.99 1.26 2.72 2.15c.73.89 1.28 1.91 1.64 3.04.36 1.13.55 2.29.55 3.47" class="st0"/><path id="path14274" d="M195.32 35.44V24.75c0-1.21-.23-2.18-.68-2.93-.45-.74-1.3-1.11-2.53-1.11-.35 0-.71.06-1.08.17-.36.11-.71.24-1.04.4-.33.15-.62.31-.87.47-.25.16-.45.31-.6.43.05.3.1.64.15 1.02.05.38.08.79.08 1.25v10.99h-4.68V24.75c0-.55-.04-1.08-.13-1.57s-.25-.92-.47-1.28c-.23-.36-.52-.65-.89-.87-.36-.21-.82-.32-1.38-.32-.71 0-1.37.19-2 .57-.63.38-1.16.78-1.58 1.21v12.95h-4.68v-18.2h4.3l.19 1.36c.56-.5 1.24-.93 2.06-1.28.82-.35 1.64-.53 2.48-.53.86 0 1.71.13 2.55.4.84.26 1.63.72 2.36 1.38.83-.5 1.75-.93 2.74-1.27 1-.34 2.06-.51 3.2-.51 1.36 0 2.5.18 3.42.53.92.35 1.66.86 2.21 1.51.56.66.95 1.46 1.19 2.42s.36 2.05.36 3.29v10.91h-4.68z" class="st0"/></g></g></svg>